<svg width="21" height="22" viewBox="0 0 21 22" fill="none" xmlns="http://www.w3.org/2000/svg">
<path d="M9.02149 19.5059C9.02147 19.3592 8.98919 19.2144 8.92695 19.0816C8.8647 18.9488 8.77401 18.8313 8.66131 18.7375C8.5486 18.6436 8.41663 18.5757 8.27476 18.5386C8.13289 18.5014 7.98458 18.4959 7.84034 18.5225C6.53126 18.7627 4.87843 18.7988 4.43897 17.5645C4.05578 16.6085 3.42105 15.774 2.60206 15.1495C2.54363 15.1177 2.48794 15.0811 2.43556 15.0401C2.36389 14.851 2.23658 14.6881 2.07043 14.5729C1.90428 14.4576 1.7071 14.3955 1.50489 14.3946H1.50001C1.23561 14.3945 0.981942 14.4991 0.794525 14.6856C0.607109 14.8721 0.501212 15.1253 0.500014 15.3897C0.496104 16.2051 1.31101 16.7276 1.64161 16.9043C2.03146 17.296 2.34477 17.7571 2.56544 18.2637C2.9297 19.2872 3.98829 20.8399 7.03126 20.6397C7.03226 20.6749 7.03321 20.7081 7.0337 20.7383L7.03809 21.0059C7.03809 21.2711 7.14345 21.5255 7.33099 21.713C7.51852 21.9006 7.77288 22.0059 8.03809 22.0059C8.30331 22.0059 8.55766 21.9006 8.7452 21.713C8.93274 21.5255 9.03809 21.2711 9.03809 21.0059L9.03321 20.6876C9.02833 20.4981 9.02149 20.2236 9.02149 19.5059ZM19.6885 4.37987C19.7202 4.25487 19.7515 4.1162 19.7788 3.95995C19.9406 2.84554 19.7996 1.70814 19.3706 0.666948C19.3165 0.531211 19.2333 0.408955 19.127 0.308751C19.0206 0.208547 18.8936 0.132819 18.7549 0.0868779C18.3989 -0.0332421 17.0845 -0.269572 14.5708 1.33688C12.4814 0.845172 10.3063 0.845172 8.21682 1.33688C5.71339 -0.246042 4.40577 -0.0312421 4.05323 0.0820379C3.9111 0.126118 3.78063 0.201445 3.67138 0.302496C3.56214 0.403547 3.47689 0.527762 3.42188 0.666038C2.98419 1.72722 2.84472 2.88781 3.01856 4.02248C3.04298 4.15041 3.06934 4.26858 3.09669 4.37697C2.26826 5.48041 1.827 6.82633 1.84132 8.20607C1.83862 8.5139 1.85281 8.82166 1.8838 9.12794C2.2178 13.7305 5.2178 15.1123 7.30811 15.5869C7.26466 15.7119 7.22511 15.8457 7.18995 15.9873C7.12729 16.2446 7.16922 16.5163 7.30655 16.7427C7.44388 16.9691 7.6654 17.1318 7.92252 17.1952C8.17965 17.2585 8.45141 17.2173 8.6782 17.0806C8.90499 16.9439 9.06831 16.7228 9.13233 16.4658C9.19596 16.1326 9.35905 15.8266 9.60011 15.5879C9.74587 15.4603 9.8514 15.2931 9.90387 15.1066C9.95633 14.9201 9.95348 14.7224 9.89564 14.5375C9.83781 14.3526 9.72748 14.1885 9.5781 14.0652C9.42872 13.9419 9.24671 13.8646 9.05421 13.8428C5.60011 13.4483 4.10059 12.041 3.87501 8.94436C3.85003 8.69909 3.83878 8.45261 3.84132 8.20608C3.82528 7.22273 4.15015 6.26416 4.76075 5.49319C4.82211 5.41281 4.88746 5.33556 4.95655 5.26174C5.07899 5.12474 5.1613 4.95666 5.19447 4.77594C5.22763 4.59523 5.21036 4.40887 5.14455 4.23733C5.07709 4.05686 5.02514 3.87096 4.98928 3.68166C4.90782 3.14337 4.93454 2.59425 5.06788 2.06642C5.93702 2.31189 6.755 2.71146 7.48288 3.2461C7.60325 3.32627 7.73946 3.37963 7.88226 3.40254C8.02505 3.42546 8.17111 3.4174 8.31052 3.37892C10.3316 2.83042 12.4624 2.83076 14.4834 3.37992C14.6235 3.41836 14.7704 3.42596 14.9138 3.40219C15.0571 3.37842 15.1937 3.32384 15.3139 3.24223C16.0384 2.70537 16.853 2.30223 17.7192 2.0518C17.852 2.56695 17.8817 3.10325 17.8066 3.62992C17.7704 3.83745 17.7138 4.04092 17.6377 4.23735C17.5719 4.40889 17.5546 4.59525 17.5878 4.77596C17.6209 4.95668 17.7032 5.12476 17.8257 5.26176C17.9028 5.34867 17.98 5.44242 18.0493 5.53031C18.6556 6.28823 18.975 7.23578 18.9512 8.20607C18.953 8.46568 18.9404 8.72519 18.9136 8.98341C18.6934 12.0391 17.188 13.4473 13.7178 13.8428C13.5252 13.8647 13.3432 13.9421 13.1938 14.0656C13.0445 14.189 12.9342 14.3532 12.8764 14.5382C12.8186 14.7232 12.8159 14.921 12.8684 15.1075C12.9209 15.294 13.0265 15.4613 13.1724 15.5889C13.421 15.8339 13.5845 16.1522 13.6387 16.4971C13.7063 16.7648 13.7373 17.0404 13.731 17.3164V19.6504C13.7212 20.2979 13.7212 20.7832 13.7212 21.0059C13.7212 21.2711 13.8265 21.5254 14.0141 21.713C14.2016 21.9005 14.456 22.0059 14.7212 22.0059C14.9864 22.0059 15.2408 21.9005 15.4283 21.713C15.6158 21.5254 15.7212 21.2711 15.7212 21.0059C15.7212 20.7891 15.7212 20.3135 15.731 19.666V17.3164C15.739 16.8742 15.6869 16.433 15.5762 16.0049C15.5445 15.8643 15.5057 15.7255 15.46 15.5889C16.9812 15.3362 18.3634 14.5518 19.3606 13.3755C20.3577 12.1992 20.9051 10.7072 20.9053 9.16506C20.9382 8.84648 20.9535 8.52633 20.9512 8.20607C20.9734 6.82484 20.5284 5.47659 19.6885 4.37989L19.6885 4.37987Z" fill="#5671A6"/>
</svg>
