<svg width="30" height="30" viewBox="0 0 30 30" fill="none" xmlns="http://www.w3.org/2000/svg">
<path d="M15 21.25C6.58875 21.25 0 18.505 0 15C0 11.495 6.58875 8.75 15 8.75C23.4113 8.75 30 11.495 30 15C30 18.505 23.4113 21.25 15 21.25ZM15 10C6.8975 10 1.25 12.635 1.25 15C1.25 17.365 6.8975 20 15 20C23.1025 20 28.75 17.365 28.75 15C28.75 12.635 23.1025 10 15 10Z" fill="black"/>
<path d="M9.58875 28.7512C8.99 28.7512 8.45125 28.6037 7.9775 28.3087C5 26.4562 6.015 19.1612 10.2862 11.7037C13.4237 6.22498 17.4675 2.17748 20.5888 1.38998C21.63 1.12998 22.53 1.22998 23.2725 1.68998C26.25 3.54373 25.235 10.8387 20.9637 18.2962C17.8263 23.775 13.7825 27.8225 10.6612 28.61C10.285 28.7037 9.9275 28.7512 9.58875 28.7512ZM8.6375 27.2475C9.08 27.5237 9.6575 27.5725 10.355 27.3975C13.12 26.7 16.9475 22.7925 19.8775 17.6762C24.015 10.4537 24.6388 4.01373 22.6125 2.75373C22.17 2.47748 21.5925 2.42748 20.895 2.60373C18.13 3.30123 14.3025 7.20873 11.3725 12.325C7.235 19.5475 6.61125 25.9862 8.6375 27.2475Z" fill="black"/>
<path d="M20.4112 28.7513C20.0725 28.7513 19.715 28.7038 19.3387 28.61C16.2175 27.8225 12.1737 23.775 9.03625 18.2963C4.765 10.8388 3.75 3.54376 6.7275 1.69126C7.46875 1.23126 8.37125 1.13126 9.41125 1.39126C12.5325 2.17876 16.5762 6.22626 19.7137 11.705C23.985 19.1625 25 26.4575 22.0237 28.31C21.5487 28.6038 21.01 28.7513 20.4112 28.7513ZM21.6925 27.7788H21.705H21.6925ZM8.34625 2.50001C7.97875 2.50001 7.6575 2.58376 7.3875 2.75251C5.36125 4.01376 5.985 10.4525 10.1225 17.675C13.0525 22.7925 16.88 26.7 19.645 27.3963C20.3425 27.5713 20.92 27.5225 21.3625 27.2463C23.3888 25.985 22.765 19.5463 18.6275 12.3238C15.6975 7.20626 11.87 3.29876 9.105 2.60251C8.83375 2.53376 8.58 2.50001 8.34625 2.50001Z" fill="black"/>
<path d="M15 18.125C13.2775 18.125 11.875 16.7238 11.875 15C11.875 13.2763 13.2775 11.875 15 11.875C16.7225 11.875 18.125 13.2763 18.125 15C18.125 16.7238 16.7225 18.125 15 18.125ZM15 13.125C13.9662 13.125 13.125 13.9662 13.125 15C13.125 16.0338 13.9662 16.875 15 16.875C16.0338 16.875 16.875 16.0338 16.875 15C16.875 13.9662 16.0338 13.125 15 13.125Z" fill="black"/>
</svg>
