<svg width="30" height="30" viewBox="0 0 30 30" fill="none" xmlns="http://www.w3.org/2000/svg">
<path fill-rule="evenodd" clip-rule="evenodd" d="M30 0H0V30H30V0ZM20.1225 26.5454C20.8363 26.8485 21.6347 27 22.5178 27C23.4494 27 24.2538 26.8303 24.9313 26.491C25.6088 26.1394 26.1229 25.6727 26.4738 25.0909C26.8246 24.509 27 23.8788 27 23.2C27 22.4121 26.8125 21.7758 26.4375 21.2909C26.0624 20.806 25.6148 20.4424 25.0946 20.2C24.5744 19.9575 23.903 19.7152 23.0804 19.4728C22.4755 19.2909 22.0037 19.1333 21.665 19C21.3383 18.8545 21.0601 18.6727 20.8302 18.4546C20.6125 18.2242 20.5036 17.9395 20.5036 17.6C20.5036 17.1151 20.6488 16.7455 20.9391 16.491C21.2415 16.2363 21.6408 16.1091 22.1368 16.1091C22.7054 16.1091 23.159 16.2545 23.4978 16.5454C23.8486 16.8242 24.0361 17.1818 24.0603 17.6182H26.8548C26.7701 16.4788 26.3165 15.594 25.4939 14.9636C24.6833 14.3212 23.6248 14 22.3182 14C21.4472 14 20.673 14.1515 19.9955 14.4546C19.318 14.7455 18.7918 15.1697 18.4168 15.7273C18.0417 16.2848 17.8542 16.9395 17.8542 17.6909C17.8542 18.491 18.0357 19.1333 18.3986 19.6182C18.7737 20.0909 19.2152 20.4485 19.7233 20.6909C20.2435 20.9213 20.9149 21.1576 21.7375 21.4C22.3424 21.5697 22.8142 21.7273 23.153 21.8727C23.5038 22.0061 23.7941 22.194 24.024 22.4364C24.2538 22.6788 24.3688 22.9879 24.3688 23.3636C24.3688 23.8242 24.1994 24.2 23.8607 24.491C23.5219 24.7697 23.0562 24.9091 22.4634 24.9091C21.8827 24.9091 21.423 24.7576 21.0843 24.4546C20.7576 24.1515 20.5762 23.7394 20.5399 23.2181H17.8179C17.83 23.9939 18.0417 24.6666 18.4531 25.2363C18.8644 25.806 19.4209 26.2424 20.1225 26.5454ZM16.2909 16.2363V14.1818H7V16.2363H10.3752V26.8727H12.9157V16.2363H16.2909Z" fill="black"/>
</svg>
